<?xml version="1.0" encoding="utf-8"?>
<svg viewBox="166.027 152.603 90 90" xmlns="http://www.w3.org/2000/svg" xmlns:bx="https://boxy-svg.com">
  <defs>
    <pattern id="pattern-0" x="0" y="0" width="25" height="25" patternUnits="userSpaceOnUse" viewBox="0 0 100 100">
      <rect x="0" y="0" width="50" height="100" style="fill: black;"/>
    </pattern>
  </defs>
  <g transform="matrix(0.369863, 0, 0, 0.369863, 151.913532, 140.821918)"/>
  <g transform="matrix(0.369863, 0, 0, 0.369863, 133.011561, 139.999992)"/>
  <g transform="matrix(0.020224, 0, 0, 0.020224, 118.488892, 105.475189)">
    <g id="Layer_x0020_1">
      <g id="_2744492901664">
        <polygon class="fil0" points="0,0 9144,0 9144,9144 0,9144 " style="stroke-opacity: 0; stroke: rgba(240, 240, 240, 0); fill: none;"/>
        <g>
          <path class="fil1" d="M 6604.658 4555.37 C 6604.658 3996.549 6377.658 3490.614 6010.658 3123.39 C 5642.658 2757.165 5135.658 2530.64 4575.658 2530.64 C 4015.658 2530.64 3508.658 2757.165 3140.658 3123.39 C 2773.658 3490.614 2546.658 3996.549 2546.658 4555.37 C 2546.658 5114.191 2773.658 5620.121 3140.658 5987.345 C 3508.658 6353.575 4015.658 6580.094 4575.658 6580.094 C 5135.658 6580.094 5642.658 6353.575 6010.658 5987.345 C 6377.658 5620.121 6604.658 5114.191 6604.658 4555.37 Z M 4091.658 5344.701 L 5322.658 4555.37 L 4091.658 3765.035 L 4091.658 5344.701 Z M 5533.658 4629.21 L 4055.658 5576.214 C 4041.658 5587.191 4023.658 5593.179 4003.658 5593.179 C 3954.658 5593.179 3915.658 5554.261 3915.658 5505.365 L 3915.658 3604.376 L 3915.658 3604.376 C 3915.658 3588.41 3919.658 3571.446 3929.658 3556.479 C 3955.658 3516.562 4010.658 3504.587 4051.658 3530.53 L 5531.658 4480.526 L 5533.658 4629.21 Z M 5559.658 4507.468 C 5585.658 4548.383 5573.658 4603.267 5533.658 4629.21 L 5559.658 4507.468 Z M 6134.658 2999.65 C 6533.658 3397.812 6780.658 3947.653 6780.658 4555.37 C 6780.658 5163.086 6533.658 5712.923 6134.658 6111.084 C 5735.658 6509.246 5184.658 6755.726 4575.658 6755.726 C 3966.658 6755.726 3415.658 6509.246 3016.658 6111.084 C 2617.658 5712.923 2370.658 5163.086 2370.658 4555.37 C 2370.658 3947.653 2617.658 3397.812 3016.658 2999.65 C 3415.658 2601.494 3966.658 2355.014 4575.658 2355.014 C 5184.658 2355.014 5735.658 2601.494 6134.658 2999.65 Z" style="stroke: rgba(240, 240, 240, 0); stroke-opacity: 0; stroke-width: 0px; fill-rule: evenodd; fill: rgb(0, 27, 50);"/>
          <path d="M 2086.316 929.932 L 2940.196 2408.897 L 1232.436 2408.897 L 2086.316 929.932 Z" style="fill: rgb(0, 27, 50);" transform="matrix(0.862298, -0.506401, 0.506401, 0.862298, 1759.673706, 3942.707764)" bx:shape="triangle 1232.436 929.932 1707.76 1478.965 0.5 0 1@4883313e"/>
        </g>
      </g>
    </g>
  </g>
</svg>