<?xml version="1.0" encoding="utf-8"?>
<svg viewBox="213.973 183.562 59.178 99.726" xmlns="http://www.w3.org/2000/svg">
  <defs>
    <radialGradient id="gradient-0" gradientUnits="userSpaceOnUse" cx="242.623" cy="224.392" r="27.197">
      <stop offset="0" style="stop-color: rgb(255, 237, 100);"/>
      <stop offset="1" style="stop-color: rgb(255, 255, 255);"/>
    </radialGradient>
    <radialGradient id="gradient-1" gradientUnits="userSpaceOnUse" cx="242.623" cy="224.392" r="27.197" spreadMethod="pad">
      <stop offset="0" style="stop-color: rgba(255, 252, 96, 1)"/>
      <stop offset="1" style="stop-color: rgba(248, 251, 213, 0.54);"/>
    </radialGradient>
  </defs>
  <g transform="matrix(0.020224, 0, 0, 0.020224, 150.547943, 137.808228)">
    <g id="Layer_x0020_1">
      <g id="_2744583888992">
        <polygon class="fil0" points="0,0 9144,0 9144,9144 0,9144 " style="fill: none;"/>
        <path class="fil1" d="M5178 6085l-1212 0c-47,0 -84,-37 -84,-83 0,-254 -52,-479 -127,-683 -77,-209 -178,-398 -272,-575 -159,-298 -302,-565 -302,-854l0 -16c4,-445 180,-799 441,-1043 260,-244 606,-376 952,-376 3,0 6,0 8,1l5 0c364,3 727,154 989,427 234,245 387,586 387,1007 0,289 -143,556 -301,854 -188,352 -400,748 -400,1258 0,46 -37,83 -84,83zm-1159 302c-46,0 -84,-37 -84,-84 0,-46 38,-84 84,-84l1106 0c46,0 84,38 84,84 0,47 -38,84 -84,84l-1106 0zm385 -1676l336 0 0 -117c0,-47 37,-84 83,-84 47,0 84,37 84,84l0 1324 189 0c21,-509 231,-902 418,-1253 148,-277 282,-527 282,-775 0,-374 -135,-676 -341,-891 -230,-241 -549,-373 -870,-376l-11 0c-304,0 -609,116 -839,331 -229,214 -383,527 -387,921l0 15c0,248 134,498 282,775 98,184 202,379 282,596 73,199 126,415 136,657l189 0 0 -1324c0,-47 37,-84 84,-84 46,0 83,37 83,84l0 117zm336 1207l0 -1039 -336 0 0 1039 336 0zm-623 771c-47,0 -84,-38 -84,-84 0,-46 37,-84 84,-84l901 0c47,0 84,38 84,84 0,46 -37,84 -84,84l-901 0z" style="fill-rule: nonzero; fill: rgb(255, 255, 255);"/>
      </g>
    </g>
  </g>
  <path style="fill: rgb(251, 255, 211); stroke: rgb(254, 255, 233);" d="M 243.565 234.33 C 251.869 234.33 257.06 225.34 252.907 218.148 C 248.755 210.956 238.374 210.956 234.222 218.148 C 231.027 223.682 233.316 230.764 239.145 233.383"/>
  <path d="M 238.566 188.72 C 240.427 188.63 242.209 188.554 244.158 188.856 C 246.284 189.187 248.54 189.827 250.841 190.766 C 253.388 191.805 256.583 193.592 258.751 194.994 C 260.552 196.158 261.958 197.241 263.184 198.472 C 264.302 199.594 265.142 200.733 265.912 202.018 C 266.692 203.321 267.255 204.543 267.821 206.246 C 268.519 208.346 269.3 211.711 269.594 213.883 C 269.83 215.623 269.89 216.906 269.73 218.384 C 269.571 219.861 269.164 221.359 268.639 222.748 C 268.117 224.132 267.095 225.346 266.594 226.704 C 266.103 228.03 266.143 229.343 265.639 230.795 C 265.063 232.454 263.955 233.65 263.184 236.114 C 262.032 239.798 258.592 242.85 257.701 245.743 C 257.253 247.197 255.677 251.561 255.11 252.426 C 254.47 253.402 255.705 255.863 254.605 256.668 C 253.38 257.564 253.478 258.983 251.659 259.368 C 249.532 259.819 246.06 259.561 244.158 259.505 C 242.814 259.465 242 259.127 241.021 259.232 C 240.098 259.331 239.241 259.922 238.43 260.05 C 237.706 260.165 237.147 260.186 236.384 260.05 C 235.458 259.886 234.173 259.501 233.247 258.959 C 232.336 258.426 231.502 257.7 230.86 256.845 C 230.196 255.96 229.72 254.907 229.36 253.708 C 228.955 252.357 229.392 251.32 228.678 249.071 C 227.366 244.941 221.607 234.478 219.813 229.568 C 218.601 226.25 218.527 223.849 217.767 221.794 C 217.177 220.198 216.223 219.344 215.858 217.975 C 215.484 216.575 215.254 215.361 215.585 213.474 C 216.064 210.74 218.2 205.418 219.677 202.836 C 220.774 200.918 221.962 199.767 223.154 198.676 C 224.197 197.722 225.62 197.465 226.359 196.494 C 227.094 195.529 227.052 193.804 227.587 192.88 C 228.025 192.123 228.421 191.698 229.155 191.175 C 230.088 190.511 231.519 189.81 232.974 189.402 C 234.609 188.944 236.699 188.811 238.566 188.72 Z" style="stroke-width: 0px; stroke: url(#gradient-0); fill: url(#gradient-1);"/>
</svg>