<?xml version="1.0" encoding="utf-8"?>
<svg viewBox="236.648 42.24 85 50" xmlns="http://www.w3.org/2000/svg">
  <defs>
    <filter style="color-interpolation-filters:sRGB" id="filter5027" x="-0.108" width="1.216" y="-0.108" height="1.216">
      <feGaussianBlur stdDeviation="15.44243" id="feGaussianBlur5029"/>
    </filter>
    <filter style="color-interpolation-filters:sRGB" id="filter5168" x="-0.082692482" width="1.165385" y="-0.15562941" height="1.3112588">
      <feGaussianBlur stdDeviation="16.48927" id="feGaussianBlur5170"/>
    </filter>
    <linearGradient id="linearGradient5360" gradientUnits="userSpaceOnUse" gradientTransform="matrix(0.362812, -0.075858, 0.059522, 0.284681, 389.272051, -702.077895)" x1="276.72198" y1="82.208237" x2="276.72198" y2="425.37335">
      <stop style="stop-opacity: 1; stop-color: rgb(179, 172, 172);" offset="0" id="stop5218"/>
      <stop style="stop-opacity: 1; stop-color: rgb(246, 246, 246);" offset="1" id="stop5220"/>
    </linearGradient>
    <linearGradient id="linearGradient5364" gradientUnits="userSpaceOnUse" gradientTransform="matrix(0.74131465,0,0,0.74131465,319.52785,494.90652)" x1="213.40952" y1="131.64185" x2="213.40952" y2="297.85263">
      <stop style="stop-color:#ffffff;stop-opacity:1;" offset="0" id="stop5230"/>
    </linearGradient>
    <clipPath clipPathUnits="userSpaceOnUse" id="clipPath5406">
      <path id="path5408" d="m 248.36109,124.94295 a 94.561045,94.561045 0 0 0 -94.56045,94.56046 94.561045,94.561045 0 0 0 94.56045,94.56368 l 201.8491,0 a 94.561045,94.561045 0 0 0 94.56046,-94.56368 94.561045,94.561045 0 0 0 -94.56046,-94.56046 l -201.8491,0 z" style="opacity:1;fill:#000000;fill-opacity:0.2713568;stroke:none;stroke-width:1.89999998;stroke-miterlimit:4;stroke-dasharray:none;stroke-opacity:1"/>
    </clipPath>
    <clipPath clipPathUnits="userSpaceOnUse" id="clipPath5542">
      <path id="path5544" d="M 276.72334,-64.667422 A 189.12209,189.12209 0 0 1 87.602437,-253.78833 189.12209,189.12209 0 0 1 276.72334,-442.91569 l 403.69819,0 a 189.12209,189.12209 0 0 1 189.12094,189.12736 189.12209,189.12209 0 0 1 -189.12094,189.120908 l -403.69819,0 z" style="opacity:1;fill:#000000;fill-opacity:0.2713568;stroke:none;stroke-width:1.89999998;stroke-miterlimit:4;stroke-dasharray:none;stroke-opacity:1"/>
    </clipPath>
    <linearGradient id="linearGradient5633" x1="568.54297" y1="587.52991" x2="568.54297" y2="727.72925" gradientUnits="userSpaceOnUse" gradientTransform="matrix(1.008252, 0, 0, 1, -3.577388, 0)">
      <stop id="stop5180" offset="0" style="stop-color:#d5d5d5;stop-opacity:1"/>
      <stop id="stop5182" offset="1" style="stop-color:#a4a4a4;stop-opacity:1"/>
    </linearGradient>
  </defs>
  <g transform="matrix(0.241434, 0, 0, 0.241434, 139.764268, 28.351885)">
    <g id="layer1" transform="translate(0,-503.1497)">
      <g id="g5651" style="" transform="matrix(0.623647, 0, 0, 0.669459, 216.561951, 223.965393)">
        <path id="path5326" d="M 504.221 587.529 C 465.186 587.529 433.543 618.913 433.543 657.628 C 433.542 696.343 465.185 727.729 504.221 727.729 L 655.089 727.729 C 694.124 727.729 725.768 696.343 725.767 657.628 C 725.766 618.913 694.123 587.529 655.089 587.529 L 504.221 587.529 Z" style="opacity: 1; fill: url(#linearGradient5633); stroke: none; stroke-width: 1.9; stroke-miterlimit: 4; stroke-dasharray: none; fill-opacity: 0.39; stroke-opacity: 0;"/>
        <path id="path5328" d="m 110,92.362448 0,254.285152 105.71386,0 267.14356,0 105.71387,0 0,-254.285152 -105.71387,0 -267.14356,0 -105.71386,0 z m 138.36133,32.582032 201.84863,0 a 94.561045,94.561045 0 0 1 94.56152,94.56055 94.561045,94.561045 0 0 1 -94.56152,94.56152 l -201.84863,0 a 94.561045,94.561045 0 0 1 -94.56153,-94.56152 94.561045,94.561045 0 0 1 94.56153,-94.56055 z" style="opacity:0.5;fill:#000000;fill-opacity:1;stroke:none;stroke-width:1.89999998;stroke-miterlimit:4;stroke-dasharray:none;stroke-opacity:1;filter:url(#filter5168)" clip-path="url(#clipPath5406)" transform="matrix(0.74131465,0,0,0.74131465,319.52828,494.90673)"/>
        <g id="g5639">
          <circle id="circle5332" style="opacity:1;fill:#000000;fill-opacity:1;stroke:none;stroke-width:1.89999998;stroke-miterlimit:4;stroke-dasharray:none;stroke-opacity:1;filter:url(#filter5027)" r="171.58255" cy="-253.79079" cx="276.72198" transform="matrix(0.37065733,0,0,-0.37065733,401.07246,563.55932)" clip-path="url(#clipPath5542)"/>
          <circle r="63.598331" transform="scale(1,-1)" cx="503.64151" cy="-657.62878" style="opacity: 1; fill: url(#linearGradient5360); fill-opacity: 1; stroke: none; stroke-width: 1.9; stroke-miterlimit: 4; stroke-dasharray: none; stroke-opacity: 0;" id="circle5334"/>
          <path id="path5338" d="m 503.64174,594.02985 a 63.598327,63.598327 0 0 0 -63.5243,61.53201 106.69636,53.215802 0 0 0 7.00485,2.34123 56.531849,56.531849 0 0 1 -0.0131,-0.27366 56.531849,56.531849 0 0 1 56.53248,-56.53248 56.531849,56.531849 0 0 1 56.53103,56.53248 56.531849,56.531849 0 0 1 -0.009,0.25193 106.69636,53.215802 0 0 0 6.973,-2.30357 63.598327,63.598327 0 0 0 -63.49533,-61.54794 z" style="opacity:0.47000002;fill:url(#linearGradient5364);fill-opacity:1;stroke:none;stroke-width:1.89999998;stroke-miterlimit:4;stroke-dasharray:none;stroke-opacity:1"/>
        </g>
      </g>
      <g id="g5660" transform="translate(-7.2364947,0)"/>
    </g>
  </g>
</svg>