<?xml version="1.0" encoding="utf-8"?>
<svg viewBox="230.411 221.918 72 78" xmlns="http://www.w3.org/2000/svg">
  <defs>
    <pattern id="pattern-0" x="0" y="0" width="25" height="25" patternUnits="userSpaceOnUse" viewBox="0 0 100 100">
      <rect x="0" y="0" width="50" height="100" style="fill: black;"/>
    </pattern>
  </defs>
  <path style="fill: rgb(216, 216, 216); stroke: rgb(0, 0, 0);" d="M 324.384 279.452"/>
  <path d="M 247.477 234.745 C 262.099 228.607 279.075 228.925 291.567 240.039 C 298.09 245.95 300.404 256.67 298.792 266.724 C 297.18 276.777 291.598 286.406 282.658 290.188 C 279.629 291.449 274.267 293.676 264.087 293.239 C 255.101 292.804 247.242 288.23 240.697 279.617 C 237.954 275.981 236.082 271.77 235.126 267.085 C 235.087 266.893 235.051 266.635 235.111 266.443 C 235.185 266.204 235.514 265.977 235.767 265.941 C 236.126 265.89 236.775 265.959 237.894 266.027 C 240.148 266.164 244.501 266.317 252.838 265.666 L 253.416 265.62 L 253.376 266.194 C 253.376 266.194 253.177 269.472 254.8 272.714 C 255.617 274.346 256.835 275.891 258.799 277.053 C 260.783 278.227 263.415 278.956 267.105 278.815 C 273.517 278.598 276.987 277.576 279.103 275.337 C 281.214 273.102 281.911 269.685 282.517 264.461 C 283.168 259.048 282.055 255.461 280.634 252.996 C 279.235 250.57 277.536 249.329 276.909 248.712 C 275.603 247.38 272.316 246.357 268.34 246.29 C 264.346 246.223 259.858 247.139 256.185 249.855 L 255.685 250.226 L 255.433 249.654 C 255.433 249.654 254.575 247.714 253.058 245.041 C 252.297 243.701 251.378 242.189 250.315 240.642 C 249.784 239.869 249.222 239.094 248.626 238.327 C 248.327 237.943 248.024 237.566 247.711 237.191 C 247.397 236.816 246.739 236.074 246.739 236.074 C 246.742 236.077 247.507 235.432 247.507 235.432 C 247.507 235.432 248.159 236.167 248.478 236.549 C 248.797 236.932 249.112 237.323 249.415 237.713 C 250.022 238.494 250.601 239.292 251.14 240.076 C 252.218 241.646 253.159 243.194 253.928 244.548 C 255.47 247.263 255.729 247.929 256.094 248.7 C 259.868 246.161 264.252 245.222 268.357 245.291 C 272.478 245.36 276.107 246.549 277.613 248.002 C 278.182 248.57 280.001 249.895 281.5 252.497 C 282.978 255.059 284.143 258.961 283.511 264.577 C 282.897 269.844 282.122 273.597 279.83 276.024 C 277.541 278.446 273.676 279.577 267.141 279.815 C 263.302 279.938 260.388 279.155 258.29 277.914 C 256.171 276.66 254.768 274.884 253.906 273.162 C 252.171 269.696 252.402 267.843 252.376 266.704 C 244.332 267.309 240.1 267.163 237.833 267.025 C 236.717 266.958 236.144 266.82 235.906 266.739 C 235.961 266.772 236.029 266.82 236.106 266.887 C 237.028 271.468 238.81 275.477 241.495 279.013 C 247.892 287.496 255.375 291.872 264.133 292.241 C 274.095 292.716 279.243 290.527 282.274 289.264 C 290.973 285.696 296.22 276.444 297.805 266.566 C 299.389 256.689 297.267 246.426 290.899 240.783 C 278.733 229.797 262.285 229.567 247.865 235.667 Z" style="fill: none;"/>
  <path style="fill: rgb(216, 216, 216); stroke: rgb(0, 0, 0);" d="M 440.822 242.329"/>
  <path style="fill: rgb(216, 216, 216); stroke: rgb(0, 0, 0);" d="M 291.233 269.178"/>
  <path style="fill: rgb(216, 216, 216); stroke: rgb(0, 0, 0);" d="M 450.137 283.973"/>
  <g/>
  <line style="stroke-miterlimit: 1; stroke-linecap: round; stroke: rgb(255, 255, 255); stroke-width: 8px;" x1="257.262" y1="234.527" x2="257.159" y2="251.151"/>
  <line style="stroke-miterlimit: 1; stroke-linecap: round; fill: rgb(255, 255, 255); stroke: rgb(255, 255, 255); stroke-width: 8px;" x1="241.159" y1="251.631" x2="256.951" y2="251.735"/>
  <line style="stroke-miterlimit: 1; stroke-linecap: round; stroke-linejoin: round; stroke: rgb(255, 255, 255); stroke-width: 8px;" x1="257.815" y1="288.222" x2="257.712" y2="271.598"/>
  <line style="stroke-miterlimit: 1; stroke-linecap: round; stroke-linejoin: round; stroke: rgb(255, 255, 255); stroke-width: 8px;" x1="241.712" y1="271.118" x2="257.504" y2="271.014"/>
  <line style="stroke-miterlimit: 1; stroke-linecap: round; stroke-linejoin: round; stroke: rgb(255, 255, 255); stroke-width: 8px;" x1="274.698" y1="271.383" x2="274.595" y2="288.007" transform="matrix(-1, 0, 0, -1, 549.292999, 559.389984)"/>
  <line style="stroke-miterlimit: 1; stroke-linecap: round; stroke-linejoin: round; stroke: rgb(255, 255, 255); stroke-width: 8px;" x1="274.906" y1="270.799" x2="290.698" y2="270.903" transform="matrix(-1, 0, 0, -1, 565.604004, 541.702026)"/>
  <line style="stroke-miterlimit: 1; stroke-linejoin: round; stroke-linecap: round; stroke: rgb(255, 255, 255); stroke-width: 8px;" x1="275.26" y1="251.608" x2="275.157" y2="234.984" transform="matrix(-1, 0, 0, -1, 550.417023, 486.591995)"/>
  <line style="stroke-miterlimit: 1; stroke-linejoin: round; stroke-linecap: round; stroke: rgb(255, 255, 255); stroke-width: 8px;" x1="275.468" y1="252.192" x2="291.26" y2="252.088" transform="matrix(-1, 0, 0, -1, 566.727997, 504.279999)"/>
</svg>